<svg xmlns="http://www.w3.org/2000/svg" width="100%" height="100%" class="lds-wedges" preserveAspectRatio="xMidYMid" viewBox="0 0 100 100" style="background:0 0"><g><g ng-attr-transform="scale({{config.scale}})"><g><g transform="translate(50,50) scale(0.7) translate(-50,-50) rotate(8 50 50)"><animateTransform attributeName="transform" begin="0s" calcMode="linear" dur="0.75s" keyTimes="0;1" repeatCount="indefinite" type="rotate" values="0 50 50;360 50 50"/><path fill="#e6e6e6" fill-opacity=".8" d="M50 50L50 0A50 50 0 0 1 100 50Z" ng-attr-fill="{{config.c1}}" ng-attr-fill-opacity="{{config.opacity}}"/></g><g transform="translate(50,50) scale(0.7) translate(-50,-50) rotate(186 50 50)"><animateTransform attributeName="transform" begin="0s" calcMode="linear" dur="1s" keyTimes="0;1" repeatCount="indefinite" type="rotate" values="0 50 50;360 50 50"/><path fill="#b7b7b7" fill-opacity=".8" d="M50 50L50 0A50 50 0 0 1 100 50Z" ng-attr-fill="{{config.c2}}" ng-attr-fill-opacity="{{config.opacity}}" transform="rotate(90 50 50)"/></g><g transform="translate(50,50) scale(0.7) translate(-50,-50) rotate(4 50 50)"><animateTransform attributeName="transform" begin="0s" calcMode="linear" dur="1.5s" keyTimes="0;1" repeatCount="indefinite" type="rotate" values="0 50 50;360 50 50"/><path fill="#565656" fill-opacity=".8" d="M50 50L50 0A50 50 0 0 1 100 50Z" ng-attr-fill="{{config.c3}}" ng-attr-fill-opacity="{{config.opacity}}" transform="rotate(180 50 50)"/></g><g transform="translate(50,50) scale(0.7) translate(-50,-50) rotate(182 50 50)"><animateTransform attributeName="transform" begin="0s" calcMode="linear" dur="3s" keyTimes="0;1" repeatCount="indefinite" type="rotate" values="0 50 50;360 50 50"/><path fill="#000" fill-opacity=".8" d="M50 50L50 0A50 50 0 0 1 100 50Z" ng-attr-fill="{{config.c4}}" ng-attr-fill-opacity="{{config.opacity}}" transform="rotate(270 50 50)"/></g></g></g></g></svg>